<?xml version="1.0" encoding="UTF-8"?>
<svg id="Layer_1" data-name="Layer 1" xmlns="http://www.w3.org/2000/svg" version="1.1" viewBox="0 0 26 25">
  <defs>
    <style>
      .cls-1 {
        fill: #367dbd;
        stroke-width: 0px;
      }
    </style>
  </defs>
  <g id="SpiZlC">
    <g>
      <path class="cls-1" d="M23.4,20.6h0c-.3-.4-.6-.8-.9-1.1-1.3-1.7-2-3.7-2.1-5.7,0-.6,0-1.3,0-1.9s0-.9,0-1.3c0-3.2-1.6-5.6-4.5-7-.2,0-.4-.2-.6-.2,0,0-.1,0-.2,0v-.3c0-.3,0-.5,0-.8,0-.8-.4-1.4-.9-1.8-.2-.1-.5-.2-.7-.3-.1,0-.2,0-.3-.1h-.6s0,0,0,0c0,0,0,0,0,0-1.2.3-1.9,1.1-1.9,2.4v.8c-.2,0-.3.1-.4.2-.4.2-.7.3-1.1.5-2.2,1.4-3.5,3.3-3.7,5.8,0,.7,0,1.5,0,2.2,0,.3,0,.5,0,.8,0,2.2-.6,4.3-1.7,6-.3.5-.7,1-1.1,1.5-.1.1-.2.2-.3.4-.2.2-.3.5-.2.8,0,.2.1.4.3.5.2.1.4.2.7.2,1.6,0,3.2,0,4.8,0h1.5c.6,2,2.2,2.9,3.7,2.9,1.3,0,3.1-.8,3.7-2.9h6.4c.4,0,.7-.2.9-.5.2-.4,0-.8-.2-1ZM12.1,2.2c0-.3.3-.5.6-.5h0c.3,0,.5.2.6.5,0,.2,0,.4,0,.6v.2h-1.2s0,0,0-.1c0-.2,0-.4,0-.6ZM14.5,22.1c-.3.7-1.1,1.2-1.9,1.2h0c-.8,0-1.6-.5-1.8-1.2h3.7ZM4.3,20.4c1.6-2.3,2.4-4.8,2.4-7.7,0-.2,0-.4,0-.7,0-.7,0-1.5,0-2.2.2-2.5,2.3-4.7,4.8-5.1,3.2-.6,6.2,1.4,6.9,4.6,0,.4.1.9.1,1.3,0,.4,0,.8,0,1.3,0,.6,0,1.3,0,1.9.1,2.3.9,4.5,2.3,6.5,0,0,0,0,0,0H4.3Z"/>
      <path class="cls-1" d="M6.1,4c-1,1.1-1.8,2.3-2.2,3.7-.3.9-.4,1.9-.4,2.8,0,.4-.2.6-.5.8-.1,0-.2,0-.4,0-.2,0-.4,0-.5-.2-.1-.1-.2-.3-.3-.5h0c0-.1,0-.2,0-.3v-.2c.1-2.8,1.2-5.3,3.2-7.4.2-.2.4-.3.6-.3.2,0,.4,0,.6.2.3.3.3.9,0,1.2Z"/>
      <path class="cls-1" d="M23.7,10.2h0c0,.2,0,.2,0,.3,0,.5-.4.9-.8.9s-.8-.3-.8-.8c0-.2,0-.3,0-.5,0-.6-.1-1.2-.2-1.7-.4-1.6-1.1-3-2.4-4.3-.1-.1-.2-.3-.3-.5-.1-.4,0-.8.4-.9.3-.2.7-.1,1,.2.6.6,1.2,1.3,1.6,2.1,1,1.6,1.5,3.4,1.6,5.4Z"/>
    </g>
  </g>
</svg>