<?xml version="1.0" encoding="UTF-8"?>
<svg id="Layer_1" data-name="Layer 1" xmlns="http://www.w3.org/2000/svg" version="1.1" viewBox="0 0 26 25">
  <defs>
    <style>
      .cls-1 {
        fill: #367dbd;
        stroke-width: 0px;
      }
    </style>
  </defs>
  <g id="qCS6G0">
    <g>
      <path class="cls-1" d="M24.5,9.8c-.9-1.4-2.3-2.4-4-2.7v-.6c0-.6,0-1.2,0-1.8,0-.3,0-.5-.3-.7-1.3-1.2-2.5-2.5-3.8-3.8-.2-.2-.4-.3-.7-.3H4.2c-.5,0-.7.2-.7.8v2.2H1.4c-.7,0-.9.2-.9.9v20.3c0,.7.2.9.9.9h16.4c.5,0,.7-.2.7-.7v-2.2h.8c1.2,0,1.2,0,1.2-1.2v-1.9c2.8-.6,4.8-2.9,4.9-5.7,0-1.3-.3-2.4-.9-3.5ZM16.6,2.2l1.8,1.8h-1.8v-1.8ZM17.3,23.8H1.8V4.2h1.7v16.9c0,.7.2.9.9.9h13v1.7ZM19.3,20.8H4.7V1.2h10.7v3.2c0,.5.2.7.7.7h3.2v1.7c-2.1.1-3.8,1-5,2.8-.7,1.1-1,2.4-.9,3.8.2,3.5,3.2,5.5,5.9,5.6v1.7ZM19.5,17.8h0c-1.3,0-2.6-.5-3.5-1.5-.9-.9-1.4-2.1-1.4-3.3h0c0-1.4.5-2.6,1.5-3.5.9-.9,2.1-1.4,3.4-1.4h0c2.6,0,4.8,2.3,4.7,4.9,0,2.6-2.2,4.7-4.8,4.7Z"/>
      <path class="cls-1" d="M13.6,3.6c0,.3-.2.5-.4.5-.1,0-.3,0-.4,0h-5.5c-.1,0-.2,0-.3,0-.3,0-.5-.3-.5-.6,0-.3.2-.5.5-.6,0,0,.2,0,.3,0,1.9,0,3.8,0,5.7,0,.2,0,.3,0,.4,0,.2,0,.4.3.4.6Z"/>
      <path class="cls-1" d="M13.6,6.6c0,.3-.2.6-.6.6h-5.8c0,0-.2,0-.2,0-.3,0-.5-.2-.5-.5,0-.3.1-.5.4-.6,0,0,.2,0,.4,0h5.8c.4,0,.6.3.6.6Z"/>
      <path class="cls-1" d="M10.3,12.9c-.6.7-1.3,1.3-1.9,1.9-.1.1-.3.2-.4.2s-.3,0-.4-.2c-.3-.3-.6-.6-.9-.9-.2-.3-.2-.6,0-.9.2-.2.6-.2.9,0,.1.1.3.3.4.4,0,0,0,0,0,.1l1.3-1.3c0,0,.1-.1.2-.2.3-.2.6-.2.8,0,.2.2.2.6,0,.8Z"/>
      <path class="cls-1" d="M10.3,16.9c-.2.2-.3.3-.5.5l-.6.6c-.2.2-.5.5-.7.7-.2.2-.3.2-.5.2s-.3,0-.5-.2c-.3-.3-.6-.6-.8-.8-.3-.3-.3-.6,0-.9.3-.2.6-.2.9,0,.1.1.2.2.3.4h0c0,0,1.3-1.2,1.3-1.2,0,0,.1,0,.2-.2.3-.2.6-.2.9,0,.2.2.2.6,0,.9Z"/>
      <path class="cls-1" d="M10.6,9.5c0,.4-.3.6-.7.6h-2.8c-.4,0-.7-.2-.7-.6,0-.3.3-.6.7-.6h2.8c.2,0,.4,0,.5.2.1.1.2.2.2.4Z"/>
      <path class="cls-1" d="M22.4,11.4c0,.2-.1.4-.3.6l-2.8,2.8c-.2.2-.4.3-.6.3s-.3-.1-.6-.3l-1.3-1.3c-.3-.3-.4-.7-.1-1,.1-.1.3-.2.4-.2s.4,0,.6.3l1,1,2.5-2.5c.1-.1.6-.6,1-.2.1.1.2.2.2.4Z"/>
    </g>
  </g>
</svg>