<?xml version="1.0" encoding="UTF-8"?>
<svg id="Layer_1" data-name="Layer 1" xmlns="http://www.w3.org/2000/svg" version="1.1" viewBox="0 0 26 25">
  <defs>
    <style>
      .cls-1 {
        fill: #367dbd;
        stroke-width: 0px;
      }
    </style>
  </defs>
  <g id="L1UghI">
    <g>
      <path class="cls-1" d="M25.9,4.6c-.3-2.1-2.1-3.6-4.1-3.6h-11.6c-1.9,0-3.7,1.4-4.1,3.2-.1.5-.1,1-.1,1.5,0,.2,0,.4,0,.6,0,.2,0,.4,0,.6h-.1s-.7,0-.7,0c-.5,0-1.1,0-1.6,0C1.5,7.3,0,9.1,0,11.3v10.9c0,.3,0,.6,0,.9,0,.4.2.7.6.9.1,0,.3,0,.4,0,.2,0,.5,0,.7-.3,0,0,.1,0,.2-.2l.6-.6c.6-.6,1.2-1.2,1.8-1.8,0,0,.2-.1.3-.1h11.1c2.4,0,4.2-1.8,4.3-4.1,0-.4,0-.8,0-1.2s0-.4,0-.6h0s1.4,0,1.4,0c.1,0,.2,0,.3.1.8.9,1.7,1.7,2.5,2.5.2.2.4.3.7.3.3,0,.8,0,1.1-.7V4.7s0-.2,0-.2ZM18,15.2c0,.3,0,.5,0,.8v.4c0,.3,0,.6,0,.9-.2,1.1-1.1,1.8-2.2,1.8H4.2c-.4,0-.7.1-1,.4-.4.4-.7.7-1.1,1.1h0c0,0,0-1.4,0-1.4,0-2.6,0-5.3,0-7.9,0-1.3.9-2.2,2.2-2.3h1.7v1.7c0,.6,0,1.2.3,1.7.6,1.6,2.2,2.7,3.9,2.7,1.8,0,3.6,0,5.4,0h2.4ZM24,14.6h0c-.4-.4-.7-.8-1.1-1.1-.3-.3-.6-.4-1.1-.4h-11.4c-1,0-1.7-.4-2.1-1.3-.1-.3-.2-.6-.2-1,0-1.8,0-3.6,0-5.5,0-1.4.9-2.3,2.3-2.3h11.3c1.4,0,2.3,1,2.3,2.3v9.3Z"/>
      <path class="cls-1" d="M17,8c0,.5-.5,1-1,1h0c-.6,0-1-.5-1-1,0-.2,0-.5.3-.7.2-.2.5-.3.7-.3.2,0,.5,0,.7.3.2.2.3.5.3.7Z"/>
      <path class="cls-1" d="M12.5,8c0,.5-.5,1-1,1s-.5-.1-.7-.3c-.2-.2-.3-.5-.3-.8,0-.5.5-1,1-1s.5.1.7.3c.2.2.3.5.3.7Z"/>
      <path class="cls-1" d="M21.5,8c0,.5-.5,1-1,1h0c-.3,0-.5,0-.7-.3-.2-.2-.3-.5-.3-.7h0c0-.5.5-1,1-1h0c.6,0,1,.5,1,1Z"/>
    </g>
  </g>
</svg>