<?xml version="1.0" encoding="UTF-8"?>
<svg id="Layer_1" data-name="Layer 1" xmlns="http://www.w3.org/2000/svg" version="1.1" viewBox="0 0 26 25">
  <defs>
    <style>
      .cls-1 {
        fill: #367dbd;
        stroke-width: 0px;
      }
    </style>
  </defs>
  <g id="_0c3AZp" data-name="0c3AZp">
    <g>
      <path class="cls-1" d="M22.4,17.5v-1.6c0-.6-.1-1.2-.4-1.8-.8-1.8-2.6-2.8-4.6-2.5-1.8.3-3.3,1.8-3.6,3.7,0,.2,0,.4,0,.7v4.9c0,.7-.3,1.3-.7,1.7-.5.5-1.1.7-1.8.7-1.3,0-2.3-1.1-2.3-2.3,0-.4,0-.7.2-1.1.4-.8.7-1.7,1.1-2.5.2-.6.5-1.2.7-1.8,0,0,.1-.2.2-.2,1.4-.8,2.3-2,2.7-3.6l.8-2.8c.4-1.3.7-2.5,1.1-3.8.3-1,.1-2.1-.5-2.9-.6-.8-1.6-1.3-2.7-1.3h-.2c0,0,0-.1,0-.2,0-.5-.4-.8-.9-.8h0c-.5,0-.8.4-.8.9,0,.6,0,1.3,0,1.9,0,.5.3.9.8.9.5,0,.8-.3.9-.8h0c.6-.2,1.1,0,1.5.4.3.4.5,1,.3,1.5-.7,2.6-1.3,4.7-1.9,6.7-.3.9-.8,1.7-1.5,2.2-.7.5-1.6.9-2.6.9-1.9,0-3.6-1.3-4.1-3.1-.7-2.3-1.3-4.6-1.9-6.7-.1-.5,0-1,.2-1.4.3-.4.8-.6,1.3-.6h.2c0,.6.4.9.8,1,.2,0,.4,0,.6-.2.2-.1.3-.3.3-.6,0-.7,0-1.3,0-2,0-.4-.4-.8-.8-.8h0c-.4,0-.8.4-.8.8h0c0,.1-.2.1-.2.1-.2,0-.4,0-.6,0C1.7,1.2.7,2.3.4,3.7c0,0,0,0,0,0h0v1c0,.1,0,.2.1.3l.5,1.8c.5,1.6.9,3.3,1.4,4.9.4,1.5,1.3,2.7,2.7,3.5,0,0,.2.1.2.2.2.6.5,1.2.7,1.7.3.8.7,1.6,1,2.4.2.4.2.8.3,1.2,0,1.8,1.3,3.4,3,3.9.1,0,.3,0,.4.1h.2s.9,0,.9,0h.2c.1,0,.2,0,.4-.1,1.8-.4,3.1-2.1,3.2-4v-2.1c0-1,0-1.9,0-2.9,0-.7.3-1.4.8-1.8.5-.5,1.2-.7,1.9-.7,1.3,0,2.4,1.1,2.5,2.4,0,.4,0,.9,0,1.3v.5c-2.2.6-3.1,2.7-2.8,4.3.3,1.8,1.9,3.1,3.7,3.1h0c1.8,0,3.4-1.3,3.7-3.1.3-1.7-.6-3.7-2.8-4.3ZM8.1,18l-.8-1.8s0,0,.1,0c.2,0,.5,0,.7,0,.2,0,.4,0,.7,0,0,0,0,0,.1,0l-.8,1.8ZM21.6,23.2h0c-.5,0-1.1-.2-1.4-.6-.4-.4-.6-.9-.6-1.4,0-1.1.9-2,2-2h0c.5,0,1.1.2,1.4.6.4.4.6.9.6,1.4,0,1.1-.9,2-2,2Z"/>
      <path class="cls-1" d="M22.4,21.1c0,.2,0,.4-.2.6-.2.2-.4.2-.6.2-.5,0-.8-.4-.8-.8s.4-.8.8-.8c.5,0,.8.4.8.8Z"/>
    </g>
  </g>
</svg>