<?xml version="1.0" encoding="UTF-8"?>
<svg id="Layer_1" data-name="Layer 1" xmlns="http://www.w3.org/2000/svg" version="1.1" viewBox="0 0 26 25">
  <defs>
    <style>
      .cls-1 {
        fill: #367dbd;
        stroke-width: 0px;
      }
    </style>
  </defs>
  <g id="KKKFtX">
    <g>
      <path class="cls-1" d="M.5,5.6c0-.3,0-.7,0-1,0,0,0-.1,0-.2C.9,2.1,2.8.2,5.2,0c2.3-.2,4.6,1.3,5.3,3.6,0,.3.1.5.2.8,0,0,.2,0,.2,0,1.6,0,3.2,0,4.8,0,.2,0,.3,0,.3-.2.4-1.2,1.5-2.1,2.8-2.1,1.3,0,2.4.9,2.8,2.1,0,.2.1.2.3.3,2.3.5,3.9,2.8,3.4,5.2-.4,2.1-2.2,3.6-4.4,3.6-1.7,0-3.3,0-5,0-.2,0-.2,0-.3.2-.4,1.2-1.5,2-2.8,2-1.2,0-2.3-.8-2.8-2,0-.2-.1-.2-.3-.2-1.7,0-3.4,0-5,0-1.3,0-2.2.6-2.7,1.8-.5,1.2-.3,2.3.6,3.2.4.5.9.7,1.5.9.5-1.3,1.4-2.1,2.7-2.1,1.5,0,2.4.8,2.9,2.2,1.7,0,3.5,0,5.2,0,0,0,0,0,.1,0,0,0,0,0,0-.1.5-2.9,3.1-4.8,6-4.3,2.3.4,4.1,2.5,4.2,4.9,0,2.5-1.6,4.6-3.9,5.2-.2,0-.5,0-.7.1h-1s0,0-.1,0c-2.2-.3-3.9-1.9-4.4-4,0-.2-.1-.2-.3-.2-1.6,0-3.3,0-4.9,0-.2,0-.2,0-.3.2-.4,1.2-1.5,2-2.8,2-1.3,0-2.4-.8-2.7-2,0-.2-.1-.2-.3-.3-1.8-.4-3-1.6-3.4-3.4,0-.2,0-.4-.1-.5,0-.3,0-.6,0-.9,0,0,0,0,0,0,.4-2.4,2.2-3.9,4.6-3.9,1.6,0,3.2,0,4.8,0h.3c.4-1.5,1.7-2.2,2.7-2.2.6,0,1.2.1,1.7.4.7.4,1.1,1,1.3,1.8,0,0,.1,0,.2,0,1.7,0,3.4,0,5,0,2,0,3.4-1.9,2.9-3.8-.3-1.1-1.3-2-2.3-2.1,0,0,0,.1,0,.2-.5,1.1-1.6,1.9-2.8,1.8-1.2,0-2.3-.8-2.7-1.9,0-.1-.1-.2-.3-.2-1.6,0-3.3,0-4.9,0,0,0-.1,0-.2,0,0,0,0,.1,0,.2-.4,2.3-2.4,4.1-4.8,4.2-2.4.1-4.6-1.5-5.2-3.8,0-.3-.1-.6-.2-.8ZM2,5.1c0,2,1.6,3.7,3.7,3.7,2,0,3.7-1.6,3.7-3.7,0-2-1.6-3.7-3.7-3.7-2,0-3.7,1.6-3.7,3.7ZM16.7,19.9c0,2,1.7,3.7,3.7,3.7,2,0,3.7-1.7,3.7-3.7,0-2-1.7-3.7-3.7-3.7-2,0-3.7,1.6-3.7,3.7ZM18.9,6.5c.8,0,1.5-.7,1.5-1.5,0-.8-.6-1.5-1.4-1.5-.8,0-1.5.7-1.5,1.5,0,.8.7,1.5,1.5,1.5ZM13,14c.8,0,1.5-.7,1.5-1.5,0-.8-.7-1.5-1.5-1.5-.8,0-1.5.7-1.5,1.5,0,.8.7,1.5,1.5,1.5ZM7.1,21.4c.8,0,1.5-.7,1.5-1.5,0-.8-.7-1.5-1.5-1.5-.8,0-1.5.7-1.5,1.5,0,.8.7,1.5,1.5,1.4Z"/>
      <path class="cls-1" d="M5.1,7.8c-.3-.3-.6-.6-1-1,.5-.5,1.1-1.1,1.6-1.6-.6-.6-1.1-1.1-1.7-1.6.4-.4.7-.7,1-1,.9.9,1.8,1.8,2.6,2.6-.9.9-1.8,1.8-2.7,2.6Z"/>
      <path class="cls-1" d="M22.6,19.9c0,1.2-1,2.2-2.2,2.2-1.2,0-2.2-1-2.2-2.2,0-1.2,1-2.2,2.2-2.2,1.2,0,2.2,1,2.2,2.2ZM20.4,19.1c-.4,0-.7.3-.7.7,0,.4.3.7.7.7.4,0,.7-.3.7-.7,0-.4-.3-.7-.7-.7Z"/>
    </g>
  </g>
</svg>