<?xml version="1.0" encoding="UTF-8"?>
<svg id="Layer_1" data-name="Layer 1" xmlns="http://www.w3.org/2000/svg" version="1.1" viewBox="0 0 26 25">
  <defs>
    <style>
      .cls-1 {
        fill: none;
      }

      .cls-1, .cls-2 {
        stroke-width: 0px;
      }

      .cls-2 {
        fill: #367dbd;
      }
    </style>
  </defs>
  <path class="cls-1" d="M9.6,21.6c-1,0-1.8.5-2.3,1.5,0,0,0,.1,0,.2v.2c0,0,11.7,0,11.7,0v-.2c0,0-.1-.1-.1-.2-.5-1-1.3-1.5-2.3-1.5-2.2,0-4.5,0-6.9,0Z"/>
  <path class="cls-1" d="M10.6,20h0c0,.1,5,.1,5,.1h0c-.4-1.2-1.4-1.9-2.6-1.9-1,0-2.1.9-2.3,1.8Z"/>
  <path class="cls-1" d="M13,1.3c-.3,0-.5,0-.7.3-.2.2-.3.4-.3.7,0,.5.4.9.9.9s.9-.4,1-.9c0-.5-.4-.9-.9-1Z"/>
  <path class="cls-2" d="M25.9,11.9c-.8-1.9-1.6-3.9-2.4-5.8l-.8-1.9c0-.2-.2-.4-.3-.7l-.2-.4c0-.9-.7-1.6-1.6-1.6-1.7,0-4.2,0-6.3,0,0,0-.1,0-.2,0v1.5s0,0,.1,0h5.1c0,0,.1,0,.2,0h.2s0,.3,0,.3c0,0,0,.1,0,.2l-.7,1.7c-1,2.3-1.9,4.6-2.9,6.8,0,.1,0,.2,0,.3,0,2,1.5,3.8,3.5,4.1.6,0,1.3,0,2,0h.4c2,0,3.7-1.4,4-3.4,0-.5.1-.8,0-1.3ZM21.1,4.2l3.1,7.5h-6.2l3.1-7.5ZM24.4,13.3c-.4,1-1.1,1.6-2,1.7-.4,0-.9,0-1.3,0s-.9,0-1.4,0c-1,0-1.7-.9-1.9-1.7h0c0-.1,6.7-.1,6.7-.1h0Z"/>
  <path class="cls-2" d="M15.2,1.2c-.2-.5-.6-.9-1.2-1.2,0,0,0,0,0,0,0,0,0,0-.1,0h-1.6c0,0,0,0,0,0h0c-.5.3-.9.7-1.2,1.2,0,.2-.2.2-.3.3v1.6c.1,0,.2.1.3.2.2.5.6.9,1.2,1.2.1,0,.2.2.2.4,0,3.6,0,7.2,0,10.8v.9s0,0,0,0h0c0,.1,0,.1,0,.1-.8.2-1.5.6-2,1.1-.6.6-.9,1.2-1.1,2,0,.2-.1.3-.4.4-1.8.4-3.1,2.1-3.1,4v.7h15v-.2c0-.2,0-.4,0-.6,0-1.9-1.3-3.5-3.1-4-.2,0-.3-.1-.4-.4-.3-1-.8-1.8-1.6-2.3-.3-.2-.7-.4-1.1-.6-.1,0-.3-.1-.5-.2h0s-.1,0-.1,0v-.3s0,0,0,0v-.4c0-3.8,0-7.5,0-11.3,0-.1.1-.3.2-.4.6-.3,1-.7,1.2-1.2,0-.1.2-.2.3-.3v-1.5c-.1,0-.3-.1-.3-.3ZM16.5,21.6c1,0,1.8.5,2.3,1.5,0,0,0,.1,0,.2v.2c0,0-11.7,0-11.7,0v-.2c.1,0,.1-.1.1-.2.5-1,1.3-1.5,2.3-1.5,2.3,0,4.7,0,6.9,0ZM15.5,20h0c0,.1-5,.1-5,.1h0c.2-1,1.2-1.8,2.3-1.9,1.2,0,2.3.7,2.6,1.8ZM13,3.2c-.5,0-.9-.4-.9-.9s.1-.5.3-.7c.2-.2.4-.3.7-.3.5,0,.9.5.9,1,0,.5-.4.9-1,.9Z"/>
  <path class="cls-2" d="M11.7,1.6c-2,0-4.6,0-6.3,0s-.8.2-1.1.5c-.3.3-.5.7-.5,1.1h0s0,.1,0,.1c0,0,0,.1,0,.2l-.6,1.4c-.7,1.6-1.4,3.3-2,4.9-.2.6-.5,1.1-.7,1.7l-.3.7v.5c0,.1,0,.2,0,.3,0,.1,0,.2,0,.4.5,1.8,2.1,3.1,3.9,3.1h.4c.6,0,1.3,0,1.9,0,2-.2,3.6-2.1,3.5-4.1,0,0,0-.2,0-.3-1-2.3-1.9-4.7-2.9-7l-.7-1.6c0,0,0-.1,0-.2v-.2c0,0,.1,0,.1,0,0,0,.1,0,.2,0h5.1c0,0,.1,0,.2,0v-1.6c0,0-.1,0-.2,0ZM8.3,13.3s0,0,0,0c0,0,0,.1,0,.2-.4.9-1.1,1.4-1.9,1.5-.5,0-.9,0-1.3,0s-.9,0-1.3,0c-.9-.1-1.5-.7-2-1.7h0c0-.1,6.7-.1,6.7-.1h0ZM8.1,11.7H1.9l3.1-7.5,3.1,7.5Z"/>
</svg>