<?xml version="1.0" encoding="UTF-8"?>
<svg id="Layer_1" data-name="Layer 1" xmlns="http://www.w3.org/2000/svg" version="1.1" viewBox="0 0 26 25">
  <defs>
    <style>
      .cls-1 {
        fill: #367dbd;
        stroke-width: 0px;
      }
    </style>
  </defs>
  <g id="cIZJf8">
    <g>
      <path class="cls-1" d="M17.8,4.2c-.5-.7-1.3-1.1-2.2-1.1-.2,0-.4,0-.6,0-.3,0-.6,0-.9,0v-.3c0-.5-.2-.7-.7-.7-.4,0-.9,0-1.3,0-.1,0-.1,0-.2-.1-.3-.9-.9-1.5-1.8-1.8-.1,0-.2,0-.3,0h-.1s-.7,0-.7,0h0s0,0,0,0c-1.1.2-1.8.9-2.1,2,0,0,0,0,0,0h-.4c-.3,0-.7,0-1,0-.5,0-.7.2-.7.7v.3h-1.3C1.6,3.1.5,4.2.5,5.9v13.1c0,1.7,1.1,2.8,2.9,2.8h7.1c.2,0,.3,0,.4-.2.1-.1.1-.3.1-.5,0-.2-.2-.5-.7-.5H3.4c-.2,0-.4,0-.6,0-.7-.2-1.1-.7-1.1-1.5V5.9c0,0,0-.1,0-.2,0-.7.5-1.3,1.1-1.3.4,0,.8,0,1.3,0,.2,0,.3,0,.5,0v.3c0,1,.7,1.7,1.8,1.7,2,0,4,0,6,0,1.1,0,1.7-.7,1.8-1.7v-.3h.4c.3,0,.6,0,.9,0,.5,0,.9.1,1.2.4s.5.7.5,1.2c0,1.4,0,2.9,0,4.3,0,.5,0,1.1,0,1.6,0,.1,0,.3,0,.4,0,.3.3.4.6.4.3,0,.5-.2.6-.4,0,0,0-.2,0-.3v-6.1c0-.6-.2-1.2-.5-1.6ZM12.9,4.8c0,.2-.2.3-.3.3,0,0-.2,0-.3,0h-5.8c-.5,0-.6-.1-.6-.6v-1.2h1.3c.5,0,.7-.2.8-.7,0-.8.6-1.3,1.4-1.4.7,0,1.3.4,1.5,1.1,0,0,0,.1,0,.2,0,0,0,0,0,.1,0,.4.3.6.7.6.3,0,.7,0,1.1,0h.3v.4c0,.4,0,.8,0,1.2Z"/>
      <path class="cls-1" d="M25.5,14.6c0,0,0-.2-.1-.3,0-.2-.2-.4-.4-.6-.4-.4-.8-.8-1.2-1.2l-.3-.3c-.7-.7-1.7-.7-2.4,0-2.6,2.6-5.3,5.3-7.9,8-.1.1-.2.3-.2.4-.2,1-.4,2-.6,3v.6c-.2.2,0,.5,0,.6.1.1.3.2.5.2s.1,0,.2,0h.7c.9-.3,1.9-.5,2.8-.7.2,0,.4-.2.6-.3,1.5-1.5,2.9-2.9,4.4-4.4,1-1,2.1-2.1,3.1-3.1.4-.4.7-.7.9-1.2v-.6h0ZM24.1,15.3c-2.6,2.6-5.1,5.1-7.7,7.7,0,0-.2.1-.3.1-.6.1-1.3.3-1.9.4h-.4c0,0,0,0-.1,0,0-.2,0-.3,0-.5,0-.5.2-.9.3-1.3,0-.5.3-.9.7-1.3,1.8-1.8,3.7-3.6,5.4-5.4l1.8-1.8c.2-.2.3-.3.4-.3s.3,0,.4.3l.3.3c.3.3.6.6,1,1,.3.3.3.5,0,.7Z"/>
      <path class="cls-1" d="M15.2,8.9c0,.2-.1.6-.8.6h-5.8s-.8,0-.8,0c-1.1,0-2.2,0-3.3,0-.1,0-.3,0-.4,0-.3,0-.4-.4-.4-.6,0-.3.3-.5.5-.5,0,0,.2,0,.2,0h10c.3,0,.5,0,.7.2.1.1.2.2.1.4Z"/>
      <path class="cls-1" d="M15.2,12c0,.3-.2.6-.6.6,0,0-.1,0-.2,0H4.4s0,0,0,0c0,0-.1,0-.2,0-.3,0-.5-.3-.5-.6,0-.3.3-.6.6-.6,0,0,.1,0,.2,0h10c0,0,.1,0,.2,0,.3,0,.6.3.6.6Z"/>
      <path class="cls-1" d="M15.2,15.1c0,.3-.2.6-.5.6,0,0-.1,0-.2,0H4.4c0,0-.2,0-.3,0-.3,0-.4-.4-.4-.6,0-.3.3-.5.6-.6,0,0,.1,0,.2,0h10c0,0,.1,0,.2,0,.3,0,.6.3.6.6Z"/>
    </g>
  </g>
</svg>