<?xml version="1.0" encoding="UTF-8"?>
<svg id="Layer_1" data-name="Layer 1" xmlns="http://www.w3.org/2000/svg" version="1.1" viewBox="0 0 26 25">
  <defs>
    <style>
      .cls-1 {
        fill: #367dbd;
        stroke-width: 0px;
      }
    </style>
  </defs>
  <g id="_7wqH7D" data-name="7wqH7D">
    <g>
      <path class="cls-1" d="M20.7,25H5.3c-1-.4-1.2-.7-1.2-1.8,0-.5,0-.9,0-1.4-.1,0-.2,0-.3,0-.8,0-1.5,0-2.3,0-.5,0-.8-.1-1-.5v-11.3c.2-.4.5-.6,1-.5.8,0,1.5,0,2.3,0h.3c0-.1,0-.2,0-.3,0-2.5,0-5,0-7.6,0-.9.6-1.5,1.5-1.5C9.2,0,12.8,0,16.4,0c.3,0,.5,0,.7.3,1.5,1.5,3,3,4.5,4.6.2.2.3.5.3.8,0,1.2,0,2.4,0,3.5v.3c.9,0,1.8,0,2.7,0,.5,0,.8.3.8.8,0,3.6,0,7.2,0,10.7,0,.5-.3.8-.8.8-.8,0-1.6,0-2.5,0,0,0-.2,0-.3,0,0,.6,0,1.2,0,1.7,0,.5-.2.9-.7,1.2-.2.1-.4.2-.6.2ZM2,20.3h22v-9.4H2v9.4ZM5.5,9.4h14.9v-3.2h-.3c-1.2,0-2.4,0-3.6,0-.6,0-.8-.3-.8-.8,0-1.2,0-2.4,0-3.6,0,0,0-.2,0-.3H5.5v7.9ZM20.4,21.8H5.6v1.7h14.9v-1.7ZM19.3,4.7c-.7-.7-1.4-1.4-2-2v2h2Z"/>
      <path class="cls-1" d="M13,12.1c.4,0,.7.2.8.6.4,1.1.8,2.2,1.3,3.3.2.6.5,1.3.7,1.9.2.4,0,.9-.4,1-.4.2-.8,0-1-.5,0-.2-.1-.5-.3-.6-.2-.1-.4,0-.6,0-.5,0-1,0-1.5,0-.2,0-.2,0-.3.2,0,.2-.1.3-.2.5-.2.4-.6.6-.9.4-.4-.1-.6-.5-.4-.9.7-1.8,1.4-3.6,2-5.4.1-.4.4-.6.8-.6ZM12.4,16.4h1.3c-.2-.6-.4-1.1-.6-1.7-.2.6-.4,1.2-.6,1.7Z"/>
      <path class="cls-1" d="M19.2,14.3c.3-.4.5-.7.7-1,.2-.3.4-.5.6-.8.3-.4.7-.5,1-.2.4.2.4.7.1,1.1-.5.7-1,1.4-1.5,2.1-.1.1,0,.2,0,.4.5.7,1,1.4,1.5,2.1.2.2.2.5.1.8-.2.5-.9.6-1.3.1-.4-.5-.8-1.1-1.2-1.6,0,0,0-.1-.2-.2,0,0-.1.1-.2.2-.4.6-.8,1.1-1.2,1.7-.2.3-.4.4-.7.3-.3,0-.5-.3-.6-.5,0-.2,0-.5.2-.7.5-.7,1-1.4,1.5-2.1.1-.1,0-.2,0-.4-.5-.7-1-1.4-1.5-2.1-.3-.5-.1-1,.4-1.2.3,0,.6,0,.8.3.4.6.9,1.2,1.3,1.9Z"/>
      <path class="cls-1" d="M7.5,13.6c0,1.5,0,2.9,0,4.4,0,.1,0,.2,0,.3,0,.4-.3.8-.7.7-.4,0-.7-.3-.7-.8,0-1.5,0-2.9,0-4.4,0,0,0-.2,0-.3-.4,0-.8,0-1.1,0-.5,0-.8-.3-.8-.7,0-.4.3-.7.8-.7,1.3,0,2.5,0,3.8,0,.5,0,.8.3.8.7,0,.4-.3.7-.8.7-.4,0-.7,0-1.1,0Z"/>
      <path class="cls-1" d="M9.7,4.6c-.6,0-1.1,0-1.7,0-.5,0-.8-.3-.8-.7,0-.4.3-.7.8-.7,1.1,0,2.3,0,3.4,0,.5,0,.8.3.8.7,0,.4-.3.7-.8.7-.6,0-1.2,0-1.7,0Z"/>
      <path class="cls-1" d="M9.7,7.8c-.6,0-1.1,0-1.7,0-.5,0-.8-.3-.8-.7,0-.4.3-.7.8-.7,1.1,0,2.3,0,3.4,0,.5,0,.8.3.8.7,0,.4-.3.7-.8.7-.6,0-1.1,0-1.7,0Z"/>
    </g>
  </g>
</svg>